<svg xmlns="http://www.w3.org/2000/svg" xmlns:xlink="http://www.w3.org/1999/xlink" width="50" zoomAndPan="magnify" viewBox="0 0 37.5 37.499999" height="50" preserveAspectRatio="xMidYMid meet" version="1.0"><defs><g/><clipPath id="id1"><path d="M 0 1 L 37.007812 1 L 37.007812 37.007812 L 0 37.007812 Z M 0 1 " clip-rule="nonzero"/></clipPath></defs><g clip-path="url(#id1)"><path stroke-linecap="butt" transform="matrix(0.75, 0, 0, 0.75, -0.321262, 5.279106)" fill="none" stroke-linejoin="miter" d="M 6.8971 34.997654 L 43.964813 34.997654 L 43.964813 28.75807 L 17.595018 28.75807 L 43.964813 8.403901 L 43.964813 2.159108 L 6.8971 2.159108 L 6.8971 8.403901 L 33.266895 8.403901 L 6.8971 28.75807 Z M 6.8971 34.997654 " stroke="#ffffff" stroke-width="1.349105" stroke-opacity="1" stroke-miterlimit="4"/></g><g fill="#ffffff" fill-opacity="1"><g transform="translate(19.750551, 18.642735)"><g><path d="M -0.773438 -0.945312 L -0.613281 -0.761719 L -0.257812 -1.066406 L 0.0234375 -0.0195312 L 0.675781 -0.578125 L 0.515625 -0.765625 L 0.160156 -0.457031 L -0.121094 -1.503906 Z M -0.773438 -0.945312 "/></g></g><g transform="translate(20.447868, 18.043757)"><g><path d="M 0.0585938 -0.0507812 L 0.242188 -0.210938 L -0.550781 -1.136719 L -0.738281 -0.976562 Z M 0.0585938 -0.0507812 "/></g></g><g transform="translate(20.748851, 17.78522)"><g><path d="M -0.753906 -0.996094 L 0.0585938 -0.046875 L 0.246094 -0.207031 L -0.195312 -0.722656 L 0.816406 -0.667969 L 0.00390625 -1.617188 L -0.183594 -1.457031 L 0.257812 -0.941406 Z M -0.753906 -0.996094 "/></g></g><g transform="translate(21.608148, 17.047105)"><g><path d="M -0.308594 -1.355469 C -0.4375 -1.246094 -0.511719 -1.101562 -0.523438 -0.933594 C -0.535156 -0.761719 -0.484375 -0.609375 -0.375 -0.480469 C -0.261719 -0.351562 -0.121094 -0.28125 0.0507812 -0.269531 C 0.21875 -0.253906 0.367188 -0.304688 0.5 -0.414062 C 0.628906 -0.527344 0.699219 -0.667969 0.710938 -0.835938 C 0.726562 -1.007812 0.675781 -1.183594 0.511719 -1.34375 L 0.0390625 -0.933594 L 0.191406 -0.757812 L 0.453125 -0.984375 C 0.488281 -0.863281 0.460938 -0.707031 0.339844 -0.605469 C 0.261719 -0.535156 0.171875 -0.507812 0.0703125 -0.515625 C -0.03125 -0.523438 -0.117188 -0.566406 -0.183594 -0.644531 C -0.25 -0.722656 -0.28125 -0.8125 -0.273438 -0.914062 C -0.265625 -1.015625 -0.222656 -1.101562 -0.144531 -1.167969 C -0.0703125 -1.234375 0.0195312 -1.261719 0.125 -1.257812 L 0.144531 -1.503906 C 0.00390625 -1.511719 -0.164062 -1.476562 -0.308594 -1.355469 Z M -0.308594 -1.355469 "/></g></g><g transform="translate(22.592089, 16.201925)"><g><path d="M 0.160156 -0.453125 C 0.109375 -0.40625 0.015625 -0.402344 -0.0273438 -0.453125 L -0.179688 -0.253906 C -0.0390625 -0.136719 0.179688 -0.140625 0.324219 -0.265625 C 0.480469 -0.398438 0.511719 -0.644531 0.375 -0.800781 C 0.265625 -0.929688 0.0859375 -0.929688 -0.0585938 -0.863281 C -0.140625 -0.828125 -0.265625 -0.757812 -0.335938 -0.84375 C -0.378906 -0.894531 -0.375 -0.972656 -0.324219 -1.019531 C -0.273438 -1.0625 -0.191406 -1.054688 -0.148438 -1.003906 L 0.00390625 -1.203125 C -0.136719 -1.324219 -0.34375 -1.328125 -0.488281 -1.207031 C -0.640625 -1.070312 -0.660156 -0.835938 -0.527344 -0.679688 C -0.417969 -0.554688 -0.238281 -0.546875 -0.09375 -0.605469 C -0.0117188 -0.636719 0.113281 -0.722656 0.1875 -0.640625 C 0.230469 -0.589844 0.210938 -0.496094 0.160156 -0.453125 Z M 0.160156 -0.453125 "/></g></g></g></svg>