<svg xmlns="http://www.w3.org/2000/svg" xmlns:xlink="http://www.w3.org/1999/xlink" width="46" zoomAndPan="magnify" viewBox="0 0 34.5 34.5" height="46" preserveAspectRatio="xMidYMid meet" version="1.0"><defs><clipPath id="id1"><path d="M 23 24 L 27.683594 24 L 27.683594 32 L 23 32 Z M 23 24 " clip-rule="nonzero"/></clipPath><clipPath id="id2"><path d="M 6.683594 0 L 27.683594 0 L 27.683594 34.007812 L 6.683594 34.007812 Z M 6.683594 0 " clip-rule="nonzero"/></clipPath></defs><path fill="#ff0000" d="M 13.183594 21.648438 C 12.835938 21.648438 12.5 21.585938 12.1875 21.476562 L 8.183594 24.566406 C 8.183594 25.140625 7.957031 25.691406 7.554688 26.097656 C 7.316406 26.335938 7.183594 26.660156 7.183594 26.996094 C 7.183594 27.304688 7.296875 27.601562 7.496094 27.835938 L 12.433594 33.507812 C 13.039062 34.207031 14.183594 33.777344 14.183594 32.847656 L 14.183594 21.648438 Z M 13.183594 21.648438 " fill-opacity="1" fill-rule="nonzero"/><g clip-path="url(#id1)"><path fill="#1e1a1e" d="M 26.8125 26.097656 C 26.410156 25.691406 26.183594 25.140625 26.183594 24.566406 L 23.765625 24.566406 L 23.765625 31.40625 L 26.871094 27.835938 C 27.074219 27.601562 27.183594 27.304688 27.183594 26.996094 C 27.183594 26.660156 27.050781 26.335938 26.8125 26.097656 Z M 26.8125 26.097656 " fill-opacity="1" fill-rule="nonzero"/></g><path fill="#ff0000" d="M 24.183594 23.03125 L 22.179688 21.492188 C 21.871094 21.601562 21.53125 21.648438 21.183594 21.648438 L 20.183594 21.648438 L 20.183594 32.847656 C 20.183594 33.777344 21.328125 34.207031 21.9375 33.507812 L 23.765625 31.40625 C 24.035156 31.054688 24.183594 30.621094 24.183594 30.175781 Z M 24.183594 23.03125 " fill-opacity="1" fill-rule="nonzero"/><path fill="#af0000" d="M 22.179688 21.492188 L 22.183594 30.207031 L 24.183594 27.90625 L 25.183594 23.269531 L 24.183594 18.628906 C 24.183594 19.945312 23.347656 21.082031 22.179688 21.492188 Z M 22.179688 21.492188 " fill-opacity="1" fill-rule="nonzero"/><path fill="#af0000" d="M 24.785156 15.609375 L 10.183594 15.609375 C 10.183594 15.609375 8.183594 15.609375 8.183594 18.628906 L 8.183594 24.851562 C 8.183594 25.339844 8.359375 25.808594 8.679688 26.175781 L 12.183594 30.207031 L 12.1875 21.476562 C 11.019531 21.066406 10.183594 19.945312 10.183594 18.628906 L 13.183594 18.628906 C 14.839844 18.628906 16.183594 19.980469 16.183594 21.648438 L 16.183594 27.816406 L 18.183594 27.816406 L 18.183594 21.648438 C 18.183594 19.980469 19.527344 18.628906 21.183594 18.628906 L 24.183594 18.628906 C 24.183594 18.628906 24.785156 15.609375 24.785156 15.609375 Z M 24.785156 15.609375 " fill-opacity="1" fill-rule="nonzero"/><path fill="#000000" d="M 23.785156 15.609375 C 24.042969 16.554688 24.183594 17.570312 24.183594 18.628906 L 24.183594 27.90625 L 25.691406 26.175781 C 26.007812 25.808594 26.183594 25.339844 26.183594 24.851562 L 26.183594 18.628906 C 26.183594 15.859375 23.785156 15.609375 23.785156 15.609375 Z M 23.785156 15.609375 " fill-opacity="1" fill-rule="nonzero"/><path fill="#000000" d="M 19.183594 0.519531 L 19.183594 7.5625 L 16.183594 9.574219 L 16.183594 1.523438 L 17.183594 0.519531 Z M 19.183594 0.519531 " fill-opacity="1" fill-rule="nonzero"/><path fill="#af0000" d="M 17.183594 0.519531 L 17.183594 9.574219 L 15.183594 7.5625 L 15.183594 0.519531 Z M 17.183594 0.519531 " fill-opacity="1" fill-rule="nonzero"/><path fill="#1e1a1e" d="M 15.183594 7.5625 L 19.183594 7.5625 L 19.183594 10.804688 L 15.183594 10.804688 Z M 15.183594 7.5625 " fill-opacity="1" fill-rule="nonzero"/><path fill="#1e1a1e" d="M 24.183594 16.617188 C 25.289062 16.617188 26.183594 17.515625 26.183594 18.628906 C 26.183594 13.628906 22.15625 9.574219 17.183594 9.574219 L 24.011719 16.617188 Z M 24.183594 16.617188 " fill-opacity="1" fill-rule="nonzero"/><path fill="#ff0000" d="M 10.183594 16.617188 L 13.183594 16.617188 C 14.816406 16.617188 16.269531 17.40625 17.183594 18.628906 C 18.101562 17.40625 19.550781 16.617188 21.183594 16.617188 L 24.011719 16.617188 C 23.304688 12.582031 20.515625 9.574219 17.183594 9.574219 C 12.214844 9.574219 8.183594 13.628906 8.183594 18.628906 C 8.183594 17.515625 9.078125 16.617188 10.183594 16.617188 Z M 10.183594 16.617188 " fill-opacity="1" fill-rule="nonzero"/><g clip-path="url(#id2)"><path fill="#000000" d="M 27.167969 25.742188 C 26.855469 25.425781 26.683594 25.011719 26.683594 24.566406 C 26.683594 24.566406 26.683594 18.597656 26.683594 18.589844 C 26.667969 14.207031 23.703125 10.511719 19.683594 9.40625 L 19.683594 0.519531 C 19.683594 0.238281 19.460938 0.015625 19.183594 0.015625 L 15.183594 0.015625 C 14.90625 0.015625 14.683594 0.238281 14.683594 0.519531 L 14.683594 9.40625 C 10.667969 10.511719 7.703125 14.207031 7.683594 18.589844 C 7.683594 18.59375 7.683594 24.566406 7.683594 24.566406 C 7.683594 25.011719 7.511719 25.425781 7.203125 25.738281 C 6.867188 26.074219 6.683594 26.523438 6.683594 26.996094 C 6.683594 27.425781 6.839844 27.84375 7.121094 28.167969 L 12.054688 33.839844 C 12.347656 34.175781 12.757812 34.359375 13.179688 34.359375 C 13.355469 34.359375 13.535156 34.324219 13.710938 34.257812 C 14.300781 34.035156 14.683594 33.480469 14.683594 32.847656 L 14.683594 28.824219 C 14.683594 28.546875 14.460938 28.320312 14.183594 28.320312 C 13.910156 28.320312 13.683594 28.546875 13.683594 28.824219 L 13.683594 32.847656 C 13.683594 33.167969 13.4375 33.289062 13.359375 33.316406 C 13.285156 33.347656 13.019531 33.421875 12.808594 33.179688 L 7.875 27.503906 C 7.75 27.363281 7.683594 27.183594 7.683594 26.996094 C 7.683594 26.789062 7.765625 26.597656 7.910156 26.453125 C 7.976562 26.382812 8.039062 26.3125 8.097656 26.238281 C 8.160156 26.332031 8.230469 26.421875 8.304688 26.507812 L 11.808594 30.539062 C 11.90625 30.648438 12.042969 30.710938 12.183594 30.710938 C 12.242188 30.710938 12.304688 30.699219 12.359375 30.675781 C 12.554688 30.601562 12.683594 30.414062 12.683594 30.207031 L 12.683594 22.113281 C 12.847656 22.136719 13.015625 22.148438 13.183594 22.148438 L 13.683594 22.148438 L 13.683594 26.8125 C 13.683594 27.089844 13.910156 27.316406 14.183594 27.316406 C 14.460938 27.316406 14.683594 27.089844 14.683594 26.8125 L 14.683594 21.648438 C 14.683594 21.367188 14.460938 21.144531 14.183594 21.144531 L 13.183594 21.144531 C 11.976562 21.144531 10.96875 20.277344 10.734375 19.132812 L 13.183594 19.132812 C 14.5625 19.132812 15.683594 20.261719 15.683594 21.648438 L 15.683594 27.816406 C 15.683594 28.097656 15.910156 28.320312 16.183594 28.320312 L 18.183594 28.320312 C 18.460938 28.320312 18.683594 28.097656 18.683594 27.816406 L 18.683594 21.648438 C 18.683594 20.261719 19.804688 19.132812 21.183594 19.132812 L 23.632812 19.132812 C 23.402344 20.277344 22.390625 21.144531 21.183594 21.144531 L 20.183594 21.144531 C 19.910156 21.144531 19.683594 21.367188 19.683594 21.648438 L 19.683594 32.847656 C 19.683594 33.480469 20.066406 34.035156 20.65625 34.257812 C 21.246094 34.484375 21.898438 34.316406 22.3125 33.839844 L 27.246094 28.167969 C 27.527344 27.84375 27.683594 27.425781 27.683594 26.996094 C 27.683594 26.523438 27.5 26.074219 27.167969 25.742188 Z M 18.683594 7.058594 L 17.683594 7.058594 L 17.683594 1.019531 L 18.683594 1.019531 Z M 16.683594 1.019531 L 16.683594 7.058594 L 15.683594 7.058594 L 15.683594 1.019531 Z M 15.683594 8.0625 L 18.683594 8.0625 L 18.683594 9.191406 C 18.195312 9.109375 17.695312 9.070312 17.183594 9.070312 C 16.675781 9.070312 16.171875 9.113281 15.683594 9.191406 Z M 17.183594 10.078125 C 21.117188 10.078125 24.433594 12.777344 25.398438 16.429688 C 25.039062 16.226562 24.625 16.113281 24.183594 16.113281 L 21.183594 16.113281 C 19.648438 16.113281 18.222656 16.738281 17.183594 17.851562 C 16.148438 16.738281 14.71875 16.113281 13.183594 16.113281 L 10.1875 16.113281 C 9.746094 16.113281 9.332031 16.226562 8.96875 16.429688 C 9.9375 12.777344 13.253906 10.078125 17.183594 10.078125 Z M 24.683594 18.628906 C 24.683594 18.351562 24.460938 18.125 24.183594 18.125 L 21.183594 18.125 C 19.253906 18.125 17.683594 19.707031 17.683594 21.648438 L 17.683594 27.316406 L 16.683594 27.316406 L 16.683594 21.648438 C 16.683594 19.707031 15.113281 18.125 13.183594 18.125 L 10.183594 18.125 C 9.90625 18.125 9.683594 18.351562 9.683594 18.628906 C 9.683594 20.03125 10.503906 21.242188 11.683594 21.808594 L 11.683594 28.867188 L 9.054688 25.84375 C 8.816406 25.570312 8.683594 25.214844 8.683594 24.851562 C 8.683594 24.851562 8.683594 18.605469 8.683594 18.59375 C 8.695312 17.78125 9.363281 17.121094 10.1875 17.121094 L 13.183594 17.121094 C 14.613281 17.121094 15.921875 17.78125 16.785156 18.933594 C 16.878906 19.058594 17.027344 19.132812 17.183594 19.132812 C 17.339844 19.132812 17.488281 19.058594 17.585938 18.933594 C 18.445312 17.78125 19.757812 17.121094 21.183594 17.121094 L 24.183594 17.121094 C 25.003906 17.121094 25.675781 17.78125 25.683594 18.597656 C 25.683594 18.609375 25.683594 24.851562 25.683594 24.851562 C 25.683594 25.214844 25.550781 25.570312 25.3125 25.84375 L 22.683594 28.867188 L 22.683594 21.808594 C 23.867188 21.242188 24.683594 20.03125 24.683594 18.628906 Z M 26.496094 27.503906 L 21.5625 33.179688 C 21.347656 33.421875 21.085938 33.347656 21.007812 33.316406 C 20.933594 33.289062 20.683594 33.167969 20.683594 32.847656 L 20.683594 22.148438 L 21.183594 22.148438 C 21.355469 22.148438 21.519531 22.136719 21.683594 22.113281 L 21.683594 30.207031 C 21.683594 30.414062 21.8125 30.601562 22.007812 30.675781 C 22.066406 30.699219 22.125 30.710938 22.183594 30.710938 C 22.324219 30.710938 22.464844 30.648438 22.5625 30.539062 L 26.066406 26.507812 C 26.140625 26.421875 26.207031 26.332031 26.269531 26.238281 C 26.328125 26.3125 26.390625 26.382812 26.460938 26.453125 C 26.605469 26.597656 26.683594 26.789062 26.683594 26.996094 C 26.683594 27.183594 26.617188 27.363281 26.496094 27.503906 Z M 26.496094 27.503906 " fill-opacity="1" fill-rule="nonzero"/></g></svg>